# xmcd
#
# Track frame offsets:
#	150
#	24752
#	42490
#	54525
#	72035
#	87082
#	105282
#	122820
#	145525
#	158357
#	171232
#	187117
#	207037
#	226627
#	247095
#	266980
#	276925
#
# Disc length: 4228
#
# Revision: 1
# Processed by: cddbd v1.5.1PL0 Copyright (c) Steve Scherf et al.
# Submitted via: CDex 1.51
# Normalized: r0:DSETVAR1,TDELIM( - )
#
DISCID=e0108211
DTITLE=Various Artist - Mojo Club - Dancefloor Jazz Volume 6
DYEAR=1900
DGENRE=Jazz
TTITLE0=Quincy Jones - Summer in the City
TTITLE1=Dieter Reith - My kind of sunshine
TTITLE2=Hearts of stone - Thank you fallentinme be mice elf again
TTITLE3=Dave Pike - Sittin' on my knees
TTITLE4=Jorge Ben - Panta de lanca africano
TTITLE5=James Last - Bolero 75
TTITLE6=Peter Herbholzheimer - Feedback brother
TTITLE7=David Shire - Salsation
TTITLE8=Paul Mauriat - Etude in the form of R'nB
TTITLE9=Pierre Henry and Michel Colombier - Psyche Rock
TTITLE10=The Maivelettes - Here I am Baby
TTITLE11=George Sjearing - Aquarius
TTITLE12=Chakachas - Jungle Fever
TTITLE13=Wolfgang Dauner - Just bring it out
TTITLE14=The Equals - Funky like a train
TTITLE15=Seawind - Free
TTITLE16=Baden Powell - Bluse Volente
EXTD=
EXTT0=
EXTT1=
EXTT2=
EXTT3=
EXTT4=
EXTT5=
EXTT6=
EXTT7=
EXTT8=
EXTT9=
EXTT10=
EXTT11=
EXTT12=
EXTT13=
EXTT14=
EXTT15=
EXTT16=
PLAYORDER=
